<?xml version="1.0" standalone="no"?>
<!DOCTYPE svg PUBLIC "-//W3C//DTD SVG 1.1//EN" "http://www.w3.org/Graphics/SVG/1.1/DTD/svg11.dtd" >
<svg xmlns="http://www.w3.org/2000/svg">
<metadata>Generated by IcoMoon</metadata>
<defs>
<font id="icomoon" horiz-adv-x="1024">
<font-face units-per-em="1024" ascent="960" descent="-64" />
<missing-glyph horiz-adv-x="1024" />
<glyph unicode="&#x20;" horiz-adv-x="512" d="" />
<glyph unicode="&#xe900;" glyph-name="back" d="M629.376 800l-341.376-352 42.624-43.968h0.064l298.688-307.968 42.624 43.968-298.688 307.968 298.688 307.968z" />
<glyph unicode="&#xe901;" glyph-name="cd" d="M512 21.333v0c235.641 0 426.667 191.025 426.667 426.667s-191.025 426.667-426.667 426.667c-235.641 0-426.667-191.025-426.667-426.667s191.025-426.667 426.667-426.667v0zM512-64v0c-282.77 0-512 229.23-512 512s229.23 512 512 512c282.77 0 512-229.23 512-512s-229.23-512-512-512v0zM512 362.667v0c47.128 0 85.333 38.205 85.333 85.333s-38.205 85.333-85.333 85.333c-47.128 0-85.333-38.205-85.333-85.333s38.205-85.333 85.333-85.333v0zM512 277.333v0c-94.257 0-170.667 76.41-170.667 170.667s76.41 170.667 170.667 170.667c94.257 0 170.667-76.41 170.667-170.667s-76.41-170.667-170.667-170.667v0z" />
<glyph unicode="&#xe902;" glyph-name="s-delate" d="M512 495.734l-174.946 174.986c-6.108 6.108-14.546 9.886-23.867 9.886-18.641 0-33.753-15.112-33.753-33.753 0-9.321 3.778-17.759 9.886-23.867l174.907-174.986-174.986-174.946c-6.108-6.108-9.886-14.546-9.886-23.867 0-18.641 15.112-33.753 33.753-33.753 9.321 0 17.759 3.778 23.867 9.886l175.025 174.907 174.946-174.986c6.108-6.108 14.546-9.886 23.867-9.886 18.641 0 33.753 15.112 33.753 33.753 0 9.321-3.778 17.759-9.886 23.867l-174.907 175.025 174.986 174.946c6.108 6.108 9.886 14.546 9.886 23.867 0 18.641-15.112 33.753-33.753 33.753-9.321 0-17.759-3.778-23.867-9.886l-175.025-174.907z" />
<glyph unicode="&#xe903;" glyph-name="ellipsis" d="M155.139 449.993c0-42.556 34.499-77.055 77.055-77.055s77.055 34.499 77.055 77.055c0 42.556-34.499 77.055-77.055 77.055s-77.055-34.499-77.055-77.055zM512.756 372.936c-42.559 0-77.058 34.5-77.058 77.057 0.002 42.557 34.502 77.056 77.060 77.056 14.185 0 27.474-3.833 38.89-10.519 22.831-13.376 38.163-38.166 38.163-66.537 0.001-42.557-34.499-77.057-77.055-77.057zM715.322 449.993c0-42.556 34.499-77.055 77.055-77.055s77.055 34.499 77.055 77.055c0 42.556-34.499 77.055-77.055 77.055s-77.055-34.499-77.055-77.055z" />
<glyph unicode="&#xe904;" glyph-name="fm" d="M779.067 752.521h-434.073l194.181 112.113c17.118 9.874 22.986 31.75 13.093 48.868-9.874 17.118-31.75 22.967-48.868 13.093l-278.828-160.987c-6.492-3.744-11.362-9.218-14.371-15.5-103.242-15.557-182.401-104.658-182.401-212.237v-357.747c0-118.54 96.109-214.648 214.648-214.648h536.621c118.54 0 214.649 96.109 214.649 214.648v357.747c-0.001 118.54-96.11 214.649-214.649 214.649zM922.165 198.012c0-88.918-72.068-160.987-160.987-160.987h-500.845c-88.918 0-160.987 72.068-160.987 160.987v321.972c0 88.918 72.068 160.987 160.987 160.987h500.846c88.918 0 160.987-72.068 160.987-160.987v-321.972zM546.53 287.449c-19.765 0-35.775-16.010-35.775-35.775s16.010-35.775 35.775-35.775c19.765 0 35.775 16.010 35.775 35.775s-16.009 35.775-35.775 35.775zM796.954 287.449h-125.212c-19.765 0-35.775-16.010-35.775-35.775s16.010-35.775 35.775-35.775h125.212c19.765 0 35.775 16.010 35.775 35.775s-16.010 35.775-35.775 35.775zM796.954 502.097h-125.212c-19.765 0-35.775-16.010-35.775-35.775s16.010-35.775 35.775-35.775h125.212c19.765 0 35.775 16.010 35.775 35.775 0 19.766-16.010 35.775-35.775 35.775zM546.53 502.097c-19.765 0-35.775-16.010-35.775-35.775s16.010-35.775 35.775-35.775c19.765 0 35.775 16.010 35.775 35.775 0 19.766-16.009 35.775-35.775 35.775zM313.995 502.097c-79.026 0-143.099-64.072-143.099-143.099s64.072-143.099 143.099-143.099 143.099 64.072 143.099 143.099-64.073 143.099-143.099 143.099zM313.995 269.562c-49.387 0-89.437 40.050-89.437 89.437s40.050 89.437 89.437 89.437c49.387 0 89.437-40.050 89.437-89.437s-40.050-89.437-89.437-89.437z" />
<glyph unicode="&#xe905;" glyph-name="love" d="M961.945 600.801c-0.008 56.706-13.302 106.272-34.848 145.434-10.783 19.581-23.639 36.576-38.076 50.532-14.438 13.944-30.482 24.876-47.684 32.017-13.157 5.458-26.462 9.359-39.728 11.88-13.267 2.523-26.493 3.669-39.529 3.668-18.278 0-36.171-2.247-53.436-6.084-30.22-6.726-58.538-18.276-84.131-31.636-19.193-10.028-36.86-21.095-52.612-32.056-23.625-16.443-42.95-32.649-56.497-44.843-1.068-0.962-2.086-1.888-3.081-2.799-1.197 1.094-2.429 2.214-3.73 3.381-10.46 9.386-24.266 21.065-40.753 33.37-24.741 18.45-55.484 38.34-90.294 53.876-17.409 7.762-35.847 14.429-55.095 19.188-19.244 4.755-39.313 7.598-59.874 7.603h-0.004c-13.037 0-26.263-1.145-39.53-3.668-13.266-2.521-26.571-6.423-39.727-11.88h0.001c-17.202-7.141-33.245-18.074-47.684-32.017-10.83-10.465-20.766-22.645-29.608-36.339-13.261-20.542-24.068-44.498-31.586-71.295-7.515-26.796-11.73-56.44-11.731-88.334 0-18.319 1.391-37.379 4.346-57.066v0.002c1.877-12.482 5.392-24.992 10.156-37.595 8.954-23.618 22.291-47.651 38.636-72.123 14.309-21.399 30.952-43.1 49.138-64.804 31.824-37.968 68.384-75.948 105.384-111.702 55.495-53.614 111.982-102.19 154.68-137.454 42.695-35.257 71.592-57.183 71.807-57.347l15.473-11.738 15.473 11.738c0.199 0.152 25.142 19.078 62.902 50.021 28.32 23.209 63.849 53.177 101.579 87.084 28.298 25.432 57.833 53.079 86.511 81.787 21.508 21.532 42.535 43.659 62.208 65.928 29.509 33.419 55.975 67.094 76.488 99.901 10.254 16.416 19.026 32.627 25.893 48.644 6.856 16.022 11.841 31.862 14.22 47.659l-0.001-0.002c2.958 19.687 4.349 38.749 4.349 57.069zM493.735 673.742v0 0 0zM530.902 673.727v0 0 0 0zM906.965 551.331v-0.002c-1.208-8.087-3.673-17.203-7.41-27.070-6.986-18.515-18.454-39.585-33.311-61.783-12.994-19.439-28.553-39.776-45.817-60.375-30.214-36.059-65.639-72.912-101.718-107.767-54.125-52.298-109.725-100.13-151.707-134.797-20.992-17.335-38.584-31.386-50.9-41.081-1.325-1.043-2.576-2.025-3.777-2.967-11.104 8.703-27.621 21.823-47.724 38.324-27.996 22.978-62.93 52.502-99.794 85.693-27.648 24.894-56.38 51.852-84.068 79.63-20.766 20.832-40.943 42.126-59.622 63.323-28.019 31.78-52.662 63.403-70.827 92.578-9.085 14.575-16.544 28.526-22.047 41.415-5.515 12.886-9.042 24.699-10.558 34.878v0.002c-2.585 17.224-3.779 33.741-3.779 49.468-0.008 48.674 11.462 89.814 28.501 120.744 8.509 15.465 18.402 28.363 28.8 38.403 10.398 10.054 21.278 17.222 31.718 21.543h0.001c9.864 4.090 19.744 6.986 29.677 8.875 9.931 1.888 19.92 2.767 29.964 2.767 14.069-0.001 28.24-1.738 42.323-4.869 24.639-5.468 48.986-15.255 71.532-27.041 16.909-8.832 32.801-18.766 47.076-28.7 21.417-14.898 39.193-29.792 51.487-40.863 6.148-5.535 10.929-10.113 14.124-13.256 1.597-1.572 2.798-2.784 3.576-3.579 0.388-0.397 0.671-0.69 0.845-0.87l0.204-0.212 0.019-0.020 18.575-19.655 18.606 19.692c0.377 0.397 7.909 8.281 20.842 19.797 9.7 8.637 22.437 19.316 37.438 30.411 22.491 16.65 50.102 34.206 79.924 47.349 14.907 6.578 30.355 12.059 45.96 15.867 15.609 3.811 31.36 5.95 46.981 5.949 10.045 0 20.034-0.879 29.966-2.767s19.813-4.786 29.678-8.875c10.442-4.322 21.322-11.49 31.72-21.544 7.797-7.532 15.314-16.667 22.172-27.291 10.291-15.933 19.095-35.211 25.301-57.347 6.209-22.137 9.828-47.127 9.828-74.508-0.003-15.728-1.197-32.246-3.783-49.47z" />
<glyph unicode="&#xe906;" glyph-name="more" d="M416.651 146.803c-13.719 0-26.497 5.435-35.977 15.299-19.086 19.818-18.5 51.495 1.309 70.606l225.702 217.538-226.536 214.303c-19.995 18.932-20.876 50.611-1.967 70.617 9.415 9.928 22.651 15.619 36.315 15.619 12.812 0 24.995-4.846 34.305-13.647l264.368-250.049c15.587-14.72 19.724-37.882 10.292-57.63-0.678-1.481-1.473-2.617-1.939-3.267-0.218-0.39-0.434-0.801-0.653-1.216-1.258-2.382-2.927-5.544-5.808-8.56l-0.189-0.192c-0.179-0.182-0.351-0.346-0.513-0.497-0.575-0.824-1.209-1.585-1.889-2.267l-262.157-252.673c-9.377-9.018-21.685-13.985-34.663-13.985zM511.999 896.208c-247.538 0-448.208-200.669-448.208-448.207s200.67-448.208 448.208-448.208c247.539 0 448.208 200.67 448.208 448.208s-200.669 448.207-448.208 448.207zM511.998 71.932c-207.696 0-376.067 168.372-376.067 376.068 0 207.697 168.371 376.069 376.067 376.069 207.698 0 376.069-168.372 376.069-376.069s-168.371-376.068-376.069-376.068z" />
<glyph unicode="&#xe907;" glyph-name="music" d="M960 960l-640-144c0 0-48-10.912-48-48v-650.56c-24 6.688-51.168 10.56-80 10.56-97.216 0-176-42.976-176-96s78.784-96 176-96 176 42.976 176 96v510.016l544 118.624v-399.232c-24 6.688-51.168 10.56-80 10.56-97.216 0-176-42.976-176-96s78.784-96 176-96 176 42.976 176 96v736c0 26.528-21.504 48-48 48z" />
<glyph unicode="&#xe908;" glyph-name="music-list" d="M921.101 960c-19.177 0-33.559-15.981-33.559-33.559v-557.72c-76.706 55.932-199.756 55.932-311.62-7.99-137.432-79.903-198.158-225.325-140.628-330.796 59.128-108.667 218.933-123.050 356.365-43.147 105.471 62.324 167.795 163.001 163.001 254.090 0 1.598 0 1.598 0 3.196v682.368c0 17.579-14.382 33.559-33.559 33.559zM769.286 42.719c-102.275-60.726-226.923-59.128-274.865 12.784-47.942 73.51 1.598 190.168 102.275 250.894 102.275 60.726 231.717 59.128 279.659-14.382 46.343-71.912-6.392-186.972-107.069-249.296zM102.899 653.174h613.651c19.177 0 33.559 15.981 33.559 33.559 0 19.177-15.981 33.559-33.559 33.559h-613.651c-19.177 0-33.559-15.981-33.559-33.559 0-19.177 14.382-33.559 33.559-33.559zM102.899 857.725h613.651c19.177 0 33.559 15.981 33.559 33.559 0 19.177-15.981 33.559-33.559 33.559h-613.651c-19.177 0-33.559-15.981-33.559-33.559s14.382-33.559 33.559-33.559zM102.899 448.624h375.542c19.177 0 33.559 15.981 33.559 33.559 0 19.177-15.981 33.559-33.559 33.559h-375.542c-19.177 0-33.559-15.981-33.559-33.559 0-19.177 14.382-33.559 33.559-33.559zM307.45 311.191h-204.55c-19.177 0-33.559-15.981-33.559-33.559 0-19.177 15.981-33.559 33.559-33.559h204.55c19.177 0 33.559 15.981 33.559 33.559 0 19.177-14.382 33.559-33.559 33.559z" />
<glyph unicode="&#xe909;" glyph-name="mv" d="M807.538 551.128l-99.22-231.336c-5.233-12.162-16.681-19.405-28.892-19.837-0.482-0.016-2.425-0.016-2.907 0-12.311 0.415-23.858 7.659-29.108 19.837l-85.912 199.038v-185.847c0-18.359-14.87-33.229-33.229-33.229s-33.229 14.87-33.229 33.229v99.087l-66.755-115.618c-6.397-11.081-18.209-16.93-30.155-16.448-11.43-0.482-22.745 5.366-28.859 16.448l-73.601 133.279v-116.748c0-18.359-14.87-33.229-33.229-33.229s-33.229 14.87-33.229 33.229v232.599c0 18.359 14.87 33.229 33.229 33.229 14.105 0 26.068-8.822 30.903-21.2 4.718-2.824 104.786-180.479 104.786-180.479l96.91 167.853c0 0 14.87 33.826 33.229 33.826 10.052 0 18.94-4.553 25.037-11.597 3.090 3.539 6.895 6.53 11.414 8.573 16.83 7.642 36.435 0.016 43.778-17.012l69.448-160.909 69.015 160.909c7.31 17.030 26.798 24.656 43.529 17.012 16.715-7.626 24.358-27.629 17.047-44.659zM927.011 665.267c0 82.573-66.939 149.528-149.528 149.528h-531.655c-82.589 0-149.528-66.955-149.528-149.528v-431.969c0-82.589 66.939-149.528 149.528-149.528h531.654c82.589 0 149.528 66.939 149.528 149.528v431.969zM794.097 17.314h-564.882c-110.103 0-199.371 89.268-199.371 199.371v465.197c0 110.103 89.268 199.371 199.371 199.371h564.882c110.103 0 199.371-89.268 199.371-199.371v-465.197c0-110.103-89.268-199.371-199.371-199.371z" />
<glyph unicode="&#xe90a;" glyph-name="my-list" d="M128.007 664.685h769.185c12.494 0 22.623 10.128 22.623 22.623s-10.129 22.623-22.623 22.623h-769.185c-12.495 0-22.623-10.128-22.623-22.623s10.129-22.623 22.623-22.623zM897.193 472.388h-769.186c-12.495 0-22.623-10.128-22.623-22.623s10.128-22.623 22.623-22.623h769.185c12.494 0 22.623 10.128 22.623 22.623s-10.128 22.623-22.622 22.623zM897.193 234.846h-769.186c-12.495 0-22.623-10.129-22.623-22.623s10.128-22.623 22.623-22.623h769.185c12.494 0 22.623 10.129 22.623 22.623s-10.128 22.623-22.622 22.623z" />
<glyph unicode="&#xe90b;" glyph-name="next" d="M351.952 622.018v-358.843l284.651 185.601-284.651 173.241zM636.574 622.018v-334.121h49.523v334.121h-49.523zM512-34.423c-266.014 0-482.423 216.435-482.423 482.423 0 266.014 216.41 482.423 482.423 482.423 265.987 0 482.423-216.41 482.423-482.423 0-265.987-216.435-482.423-482.423-482.423zM512 862.72c-228.637 0-414.72-186.031-414.72-414.72s186.031-414.773 414.72-414.773 414.748 186.139 414.748 414.773-186.058 414.72-414.748 414.72z" />
<glyph unicode="&#xe90c;" glyph-name="people" d="M515.413 359.253c146.773 0 266.24 119.467 266.24 266.24s-119.467 266.24-266.24 266.24c-146.773 0-266.24-119.467-266.24-266.24s119.467-266.24 266.24-266.24zM679.253 318.293c-44.373-37.547-102.4-58.027-163.84-58.027-64.853 0-122.88 23.893-167.253 58.027-153.6-51.2-262.827-174.080-262.827-314.027 0-10.24 0-23.893 3.413-34.133h849.92c0 10.24 3.413 23.893 3.413 34.133-3.413 139.947-109.227 262.827-262.827 314.027z" />
<glyph unicode="&#xe90d;" glyph-name="play" d="M512.583 950.857c-277.736 0-502.857-225.139-502.857-502.857 0-277.736 225.121-502.857 502.857-502.857s502.857 225.121 502.857 502.857c0 277.718-225.121 502.857-502.857 502.857v0zM512.583 16.98c-237.678 0-431.020 193.342-431.020 431.020 0 237.661 193.342 431.020 431.020 431.020s431.020-193.359 431.020-431.020c0-237.678-193.34-431.020-431.020-431.020v0zM420.677 216.85c-2.77 0-5.542 0.666-8.102 1.964-6.067 3.052-9.856 9.26-9.856 15.995v410.52c0 6.682 3.717 12.82 9.646 15.923 5.893 3.087 13.083 2.631 18.555-1.176l287.347-199.899c4.771-3.315 7.647-8.735 7.718-14.521 0.069-5.808-2.666-11.279-7.333-14.716l-287.347-210.582c-3.156-2.315-6.875-3.507-10.628-3.507z" />
<glyph unicode="&#xe90e;" glyph-name="prev" d="M512-34.423c-266.014 0-482.423 216.435-482.423 482.423 0 266.014 216.41 482.423 482.423 482.423 265.987 0 482.423-216.41 482.423-482.423 0-265.987-216.435-482.423-482.423-482.423zM512 862.72c-228.665 0-414.72-186.031-414.72-414.72s186.031-414.773 414.72-414.773 414.748 186.11 414.748 414.773-186.058 414.72-414.748 414.72zM695.805 247.301v371.684l-294.811-192.225 294.811-179.46zM401.021 247.301v346.026h-51.265v-346.026h51.265z" />
<glyph unicode="&#xe90f;" glyph-name="rank" d="M90.125 82.234h229.922v530.297h-229.922v-530.297zM396.828 82.234h229.922v723.094h-229.922v-723.094zM699.313 474.156v-391.922h234.563v391.922h-234.563z" />
<glyph unicode="&#xe910;" glyph-name="rating" d="M512 127.492c-27.305 0-56.32 2.383-87.040 7.164l-208.895-198.656v269.309c-66.9 38.231-119.64 87.040-158.211 146.435-38.57 59.391-57.855 123.561-57.855 192.511 0 75.095 22.87 144.555 68.611 208.385 45.734 63.83 107.859 114.345 186.364 151.549 78.51 37.206 164.18 55.811 257.025 55.811s178.515-18.605 257.025-55.811c78.505-37.204 140.63-87.72 186.364-151.549 45.741-63.83 68.611-133.46 68.611-208.895 0-75.436-22.87-145.070-68.611-208.895-45.734-63.831-107.86-114.35-186.365-151.556-78.509-37.204-164.179-55.803-257.024-55.803v0zM242.691 639.491c-22.531 0-41.646-9.221-57.345-27.651-15.7-18.429-23.556-40.96-23.556-67.585s7.855-49.32 23.556-68.095c15.699-18.775 34.815-28.16 57.345-28.16 22.524 0 41.64 9.385 57.339 28.16 15.706 18.775 23.556 41.469 23.556 68.095s-7.85 49.156-23.556 67.585c-15.699 18.429-34.815 27.651-57.339 27.651v0zM512 639.491c-22.531 0-41.645-9.221-57.345-27.651-15.699-18.429-23.549-40.96-23.549-67.585s7.85-49.32 23.549-68.095c15.7-18.775 34.815-28.16 57.345-28.16s41.645 9.385 57.345 28.16 23.549 41.469 23.549 68.095c0 26.625-7.85 49.156-23.549 67.585s-34.815 27.651-57.345 27.651v0zM781.309 639.491c-22.525 0-41.64-9.221-57.34-27.651-15.706-18.429-23.555-40.96-23.555-67.585s7.85-49.32 23.555-68.095c15.7-18.775 34.815-28.16 57.34-28.16 22.531 0 41.645 9.385 57.345 28.16s23.555 41.469 23.555 68.095c0 26.625-7.855 49.156-23.555 67.585s-34.815 27.651-57.345 27.651v0z" />
<glyph unicode="&#xe911;" glyph-name="r-serch" d="M511.998-1.21c-248.096 0-449.21 201.119-449.21 449.213 0 248.090 201.112 449.207 449.21 449.207 248.101 0 449.213-201.115 449.213-449.207s-201.112-449.213-449.213-449.213zM511.998 846.307c-219.97 0-398.304-178.314-398.304-398.297s178.334-398.31 398.304-398.31c219.973 0 398.307 178.327 398.307 398.304 0 219.989-178.333 398.304-398.307 398.304zM310.644 299.959c-5.75 12.9-0.462 28.214 11.781 34.236l181.35 63.76v269.006c0 14.235 10.958 25.741 24.487 25.741 13.532 0 24.471-11.521 24.471-25.741v-283.185c0-1.050-0.443-1.908-0.564-2.94 0.524-10.186-4.665-20.134-13.994-24.713l-194.982-68.534c-12.243-6.035-26.841-0.502-32.55 12.37z" />
<glyph unicode="&#xe912;" glyph-name="search" d="M716.705 746.316c-138.888 138.934-364.124 138.934-503.059 0s-138.934-364.17 0-503.059c138.914-138.924 364.14-138.924 503.059-0.015v0.015c138.924 138.904 138.924 364.13 0.015 503.044 0 0.005-0.015 0.005-0.015 0.015zM136.238 165.849c-181.64 181.69-181.64 476.225 0 657.921 181.68 181.64 476.2 181.64 657.921 0 181.65-181.696 181.65-476.23 0-657.921-181.721-181.64-476.235-181.64-657.92 0zM1005.351-45.389c-24.836-24.801-65.069-24.801-89.885 0l-89.84 89.885c-24.806 24.822-24.806 65.039 0 89.845 24.801 24.8 65.018 24.8 89.84 0l89.885-89.845c24.863-24.862 24.863-65.069 0-89.885z" />
<glyph unicode="&#xe913;" glyph-name="select" d="M315.602 717.777h693.035c8.479 0.002 15.352 6.876 15.352 15.355s-6.873 15.353-15.352 15.355h-693.035c-8.479-0.002-15.352-6.876-15.352-15.355s6.873-15.353 15.352-15.355zM315.602 434.319h693.035c8.479 0.002 15.352 6.876 15.352 15.355s-6.873 15.353-15.352 15.355h-693.035c-8.479-0.002-15.352-6.876-15.352-15.355s6.873-15.353 15.352-15.355zM315.602 150.758h693.035c8.479 0.002 15.352 6.876 15.352 15.355s-6.873 15.353-15.352 15.355h-693.035c-8.479-0.002-15.352-6.876-15.352-15.355s6.873-15.353 15.352-15.355zM4.402 737.227l65.209-67.973c13.717-14.332 35.419 7.473 21.702 21.702l-65.209 68.485c-13.717 13.82-35.419-7.985-21.702-22.214zM181.397 806.019l-110.865-114.55c-13.717-13.922 7.985-36.034 21.6-21.702l110.967 114.55c13.717 14.229-7.985 35.931-21.702 21.702zM4.402 447.422l65.209-67.973c13.717-14.332 35.419 7.473 21.702 21.702l-65.209 67.973c-13.717 13.922-35.419-7.371-21.702-21.702zM181.397 516.214l-110.865-114.55c-13.717-14.229 7.985-35.931 21.702-21.702l110.865 114.55c13.717 14.229-7.985 35.931-21.702 21.702zM171.467 113.701h-135.741l15.458-15.355v135.638l-15.355-15.355h135.638l-15.355 15.355v-135.638c0.002-8.479 6.876-15.352 15.355-15.352s15.353 6.873 15.355 15.352v135.638c-0.114 8.434-6.921 15.241-15.344 15.355h-135.751c-8.39-0.17-15.141-6.956-15.253-15.345v-135.649c0.114-8.434 6.921-15.241 15.344-15.355h135.649c8.479 0.002 15.352 6.876 15.352 15.355s-6.873 15.353-15.352 15.355z" />
<glyph unicode="&#xe914;" glyph-name="stop" d="M512.154 960c-282.666 0-511.847-229.172-511.847-511.826s229.181-511.826 511.847-511.826 511.845 229.172 511.845 511.826c0 282.654-229.179 511.826-511.845 511.826zM512.154 32.315c-229.682 0-415.875 186.187-415.875 415.859s186.193 415.859 415.875 415.859c229.679 0 415.874-186.187 415.874-415.859s-186.194-415.859-415.874-415.859zM319.106 641.481h127.961v-383.871h-127.961v383.871zM575.026 641.481h127.963v-383.871h-127.963v383.871z" />
<glyph unicode="&#xe915;" glyph-name="t-music" d="M932.2 466.1c-9 0-16.3-7.3-16.3-16.3 0-225.1-183.1-408.2-408.2-408.2s-408.2 183.1-408.2 408.2 183.1 408.2 408.2 408.2c9 0 16.3 7.3 16.3 16.3s-7.3 16.3-16.3 16.3c-243.1 0-440.9-197.8-440.9-440.9s197.8-440.9 440.9-440.9 440.9 197.8 440.9 440.9c0 9.1-7.3 16.4-16.4 16.4zM589.4 858c0-9.002 7.298-16.3 16.3-16.3s16.3 7.298 16.3 16.3c0 9.002-7.298 16.3-16.3 16.3s-16.3-7.298-16.3-16.3zM899.6 547.7c0-9.002 7.298-16.3 16.3-16.3s16.3 7.298 16.3 16.3c0 9.002-7.298 16.3-16.3 16.3s-16.3-7.298-16.3-16.3zM905 641.1c-5.8 11.9-12.1 23.7-18.9 35-44.6 74.3-108.7 133-186.2 170.5-1.8 0.9-3.6 1.3-5.4 1.5-2.2 1-4.6 1.6-7.1 1.6-9 0-16.3-7.3-16.3-16.3v-297.4c-24 27.2-59 44.3-98 44.3-72 0-130.6-58.6-130.6-130.6s58.5-130.6 130.5-130.6 130.6 58.6 130.6 130.6c0 2-0.1 4.1-0.1 6.1 0.1 0.7 0.1 1.4 0.1 2.1v350c63.2-34.8 117.2-86.5 154.4-148.5 6.2-10.4 12-21.1 17.3-32 3.9-8 13.2-11.7 21.3-8.1 8.4 3.7 12.4 13.6 8.4 21.8zM573 351.8c-54 0-98 43.9-98 98s43.9 98 98 98c54 0 98-43.9 98-98s-44-98-98-98zM491.4 237.5c-81 0-147 65.9-147 147 0 9-7.3 16.3-16.3 16.3s-16.3-7.3-16.3-16.3c0-99 80.6-179.6 179.6-179.6 9 0 16.3 7.3 16.3 16.3s-7.3 16.3-16.3 16.3z" />
<glyph unicode="&#xe916;" glyph-name="try" d="M65.29 243.376c0 28.998 3.834 54.217 11.565 75.601 7.731 21.379 21.663 41.523 41.803 60.478v-272.271c-20.76 18.393-34.865 38.252-42.255 59.636-7.446 21.379-11.113 46.826-11.113 76.556v0 0zM899.074 379.454c17.772-13.652 32.156-32.497 43.159-56.532 11.002-24.031 16.476-50.549 16.476-79.548 0-29.729-4.292-55.12-12.922-76.164s-24.203-41.127-46.714-60.028v272.271h0.001zM793.18 419.566c11.286 0 22.512-4.516 33.849-13.43 11.23-8.797 16.929-21.267 16.929-37.348v-230.404c0-7.166-1.639-13.881-4.911-20.028-3.327-6.262-7.278-11.906-12.018-16.985-4.739-4.963-10.266-8.797-16.472-11.565-6.207-2.651-12.019-3.947-17.377-3.947h-62.283c-15.406 0-28.378 4.739-38.76 14.217-10.439 9.589-15.569 22.284-15.569 38.365v230.347c0 16.080 5.81 28.55 17.376 37.348 11.566 8.914 23.864 13.43 36.953 13.43h62.283zM284.187 419.566c17.208 0 31.198-4.175 41.803-12.47 10.721-8.35 16.025-21.379 16.025-39.208v-224.256c0-17.718-4.572-31.766-13.764-41.864-9.198-10.042-21.216-15.12-36.053-15.12h-64.935c-17.773 0-31.030 5.419-39.603 16.081-8.578 10.606-12.922 23.694-12.922 39.095v226.064c0 17.829 5.304 30.858 16.021 39.208 10.666 8.239 23.472 12.47 38.252 12.47h55.177zM510.247 810.14c46.828 0 91.061-8.010 132.581-24.035 41.523-16.021 77.911-38.699 109.057-68.094 31.141-29.394 55.569-64.542 73.453-105.441 17.716-40.96 26.686-86.038 26.686-135.288h-58.731c-14.837 0-28.206-0.116-40.056-0.451-11.845-0.283-17.772-0.116-17.772 0.451 0 36.78-6.202 69.333-18.671 97.487-12.47 28.206-28.942 51.732-49.422 70.744-20.535 19.012-44.286 33.23-71.309 42.763-27.027 9.538-55.572 14.217-85.814 14.217-29.673 0-57.823-6.202-84.566-18.671-26.686-12.47-50.27-29.227-70.749-50.27s-36.895-45.074-49.361-72.101c-12.469-27.021-18.676-55.004-18.676-84.114h-117.458c0 49.25 8.913 94.328 26.686 135.288 17.768 40.959 42.143 76.103 72.945 105.441 30.806 29.338 67.026 52.073 108.544 68.094 41.523 16.025 85.754 23.98 132.635 23.98v0 0z" />
<glyph unicode="&#xe917;" glyph-name="type" horiz-adv-x="1027" d="M387.198 959.998h-291.199c-54.4 0-96-41.6-96-96v-291.199c0-54.4 41.6-96 96-96h383.998v383.998c3.2 57.6-41.6 99.2-92.8 99.2zM927.996 959.998h-291.199c-54.4 0-96-41.6-96-96v-383.998h383.998c54.4 0 96 41.6 96 96v291.199c3.2 51.2-38.4 92.8-92.8 92.8zM927.996 419.2h-383.998v-383.998c0-54.4 41.6-96 96-96h291.199c54.4 0 96 41.6 96 96v291.199c-3.2 48-44.8 92.8-99.2 92.8zM297.599 419.2h-201.599c-54.4 0-96-41.6-96-96v-291.199c0-54.4 41.6-96 96-96h291.199c54.4 0 96 41.6 96 96v383.998h-185.599z" />
<glyph unicode="&#xe918;" glyph-name="sq" d="M537.457 275.317h198.723l18.484-18.023c5.709-5.566 13.102-8.337 20.491-8.337 7.637 0 15.267 2.962 21.019 8.86 11.318 11.607 11.083 30.192-0.523 41.509l-17.5 17.064v270.070c0 16.21-13.143 29.353-29.354 29.353h-211.34c-16.21 0-29.353-13.143-29.353-29.353v-281.789c0-16.21 13.142-29.354 29.353-29.354zM566.81 557.107h152.634v-183.475l-2.809 2.739c-11.611 11.318-30.194 11.081-41.509-0.523-11.318-11.607-11.083-30.192 0.523-41.509l0.323-0.315h-109.162v223.083zM220.443 334.023c-16.21 0-29.353-13.143-29.353-29.354s13.143-29.353 29.353-29.353h211.342c16.21 0 29.353 13.143 29.353 29.353v140.897c0 16.21-13.143 29.354-29.353 29.354h-181.989v82.188h181.99c16.21 0 29.353 13.143 29.353 29.353s-13.143 29.353-29.353 29.353h-211.343c-16.21 0-29.353-13.143-29.353-29.353v-140.894c0-16.21 13.143-29.353 29.353-29.353h181.99v-82.19h-181.99zM933.723 723.636h-845.369c-13.509 0-24.461-10.952-24.461-24.461v-507.22c0-13.509 10.952-24.461 24.461-24.461h845.368c13.509 0 24.461 10.952 24.461 24.461v507.221c0 13.509-10.952 24.46-24.46 24.46zM909.262 216.416h-796.446v458.299h796.446v-458.299z" />
<glyph unicode="&#xe919;" glyph-name="hq" d="M220.445 275.317c16.21 0 29.353 13.143 29.353 29.353v111.543h152.636v-111.542c0-16.21 13.143-29.353 29.353-29.353s29.353 13.143 29.353 29.353v281.789c0 16.21-13.143 29.353-29.353 29.353s-29.353-13.143-29.353-29.353v-111.54h-152.636v111.54c0 16.21-13.143 29.353-29.353 29.353s-29.353-13.143-29.353-29.353v-281.789c-0.001-16.21 13.142-29.354 29.353-29.354zM537.456 275.317h199.969l18.484-18.023c5.709-5.566 13.102-8.337 20.491-8.337 7.637 0 15.267 2.962 21.019 8.86 11.318 11.607 11.083 30.192-0.523 41.509l-18.745 18.277v268.856c0 16.21-13.143 29.353-29.354 29.353h-211.341c-16.21 0-29.353-13.143-29.353-29.353v-281.789c-0.001-16.21 13.142-29.354 29.353-29.354zM566.808 557.107h152.636v-182.261l-1.565 1.526c-11.609 11.318-30.192 11.081-41.509-0.523-11.318-11.607-11.083-30.192 0.523-41.509l0.323-0.315h-110.409v223.083zM933.721 723.636h-845.366c-13.509 0-24.461-10.952-24.461-24.461v-507.22c0-13.509 10.952-24.461 24.461-24.461h845.366c13.509 0 24.461 10.952 24.461 24.461v507.221c0 13.509-10.952 24.46-24.461 24.46zM909.261 216.416h-796.444v458.299h796.444v-458.299z" />
<glyph unicode="&#xe91a;" glyph-name="dj" d="M865.971 707.489h-707.941c-52.205 0-94.238-42.347-94.238-94.585v-329.807c0-52.114 42.192-94.584 94.238-94.584h707.941c52.203 0 94.237 42.346 94.237 94.584v329.807c0 52.115-42.191 94.585-94.237 94.585zM913.029 283.095c0-26.138-21.109-47.405-47.058-47.405h-707.941c-25.948 0-47.059 21.266-47.059 47.405v329.809c0 26.139 21.111 47.406 47.059 47.406h707.941c25.948 0 47.058-21.266 47.058-47.406v-329.809zM566.987 544.6h220.613v-32.365h31.375v61.428h-123.847c-3.523 11.67-6.936 21.247-10.238 28.732l-32.035-5.615c4.182-7.927 7.705-15.632 10.569-23.118h-127.811v-61.428h31.375v32.365zM279.333 529.409c13.87 13.871 27.301 30.935 40.291 51.19l-26.089 16.183c-10.129-15.632-20.146-29.063-30.053-40.291-9.248 12.99-19.926 25.54-32.036 37.648l-24.44-19.154c14.092-12.331 25.541-25.43 34.346-39.301-14.531-11.67-29.063-21.027-43.593-28.072l16.843-27.411c17.173 10.789 30.824 20.146 40.951 28.072l1.322-2.973c3.082-8.586 5.834-19.154 8.256-31.705-16.293-26.201-38.859-48.877-67.703-68.032l17.504-26.421c20.256 14.751 38.42 32.805 54.493 54.162 0.661-8.586 0.991-17.723 0.991-27.411 0-41.173-3.413-65.831-10.237-73.978-3.082-3.523-9.137-5.284-18.165-5.284-9.247 0-19.155 0.661-29.724 1.981l9.248-29.392 27.082-0.332c12.99 0 23.559 2.862 31.705 8.587 13.21 11.229 19.814 43.483 19.814 96.766-0.88 49.319-6.163 87.298-15.852 113.94-1.1 3.303-2.751 7.045-4.953 11.23zM441.16 388.719c3.742-9.909 7.927-23.12 12.55-39.631-14.092-2.643-26.97-4.845-38.64-6.605v65.39h65.39v139.040h-65.72v51.851h-31.375v-51.851h-64.070v-139.040h64.731v-69.355c-22.899-2.201-48.548-4.182-76.951-5.943l4.955-31.705c63.85 5.723 113.608 12.438 149.277 20.146l6.275-27.412 28.731 7.266c-8.806 36.107-18.713 68.252-29.722 96.434l-25.432-8.586zM384.355 436.605h-34.346v81.574h34.346v-81.574zM414.739 518.179h35.338v-81.574h-35.338v81.574zM752.924 430.331c19.596 7.927 37.868 17.284 54.823 28.072l-21.136 21.136c-26.201-16.733-53.943-29.392-83.225-37.979-6.824 12.109-14.861 23.338-24.108 33.686 7.265 4.623 14.861 9.577 22.788 14.861h73.317v29.063h-196.174v-29.063h73.978c-5.945-2.862-13.54-6.275-22.788-10.238-26.421-10.789-54.823-19.374-85.207-25.76l15.852-26.091c39.192 11.67 69.465 22.568 90.821 32.697l3.301 1.65c1.542-1.761 4.734-5.834 9.577-12.218-29.724-21.358-71.665-38.972-125.828-52.843l15.523-27.080c51.52 14.971 92.692 33.906 123.516 56.804 3.082-7.045 5.504-13.431 7.266-19.155-36.109-28.622-86.308-51.96-150.599-70.014l15.852-26.751c58.127 18.055 104.803 40.292 140.030 66.712l0.33-9.577c0-18.054-2.752-30.494-8.256-37.319-4.624-5.063-16.184-7.596-34.678-7.596h-16.843l10.569-27.741h10.569c29.944 0 49.209 5.943 57.795 17.833 7.485 10.128 11.229 28.402 11.229 54.823-0.22 17.835-2.862 34.346-7.927 49.539l14.531 3.633c15.852-44.476 41.282-81.354 76.29-110.637l22.459 26.091c-34.126 23.997-58.675 55.15-73.646 93.461z" />
<glyph unicode="&#xe91b;" glyph-name="d-play" d="M659.437 125.554h-278.661l101.964-102.172c11.321-11.321 11.321-29.696 0-41.036s-29.639-11.34-40.96 0l-150.206 150.509c-11.302 11.321-11.302 29.696 0 41.036 11.264 11.283 30.568 9.159 49.892 9.159v0c6.618-0.493 13.217-1.005 19.949-1.005h298.875c147.684 0 267.397 119.012 267.397 265.823 0 87.059-42.287 164.087-107.349 212.575v0c-5.404 5.177-8.837 12.383-8.837 20.442 0 15.72 12.743 28.444 28.444 28.444 8.969 0 16.631-4.399 21.845-10.885 74.885-59.051 124.151-148.613 124.151-250.577-0.019-178.024-146.185-322.313-326.504-322.313zM710.58 722.47c-8.002-7.983-22.3-12.952-32.332-9.69v0c-5.973 0.398-11.909 0.91-17.977 0.91h-298.875c-147.684 0-267.416-119.012-267.416-265.823 0-82.697 38.438-156.046 98.039-204.781 11.036-3.906 17.825-14.715 17.825-27.079 0-15.701-12.743-28.444-28.444-28.444-7.301 0-13.805 2.958-18.83 7.471l0.36-0.341c-75.928 59.013-124.852 150.376-124.852 253.175 0 177.986 146.167 322.295 326.485 322.295h257.403l-102.665 102.798c-11.321 11.34-11.321 29.734 0 41.055s29.696 11.321 40.998 0l147.703-147.93c6.258-5.594 9.292-14.033 9.292-14.033 3.319-10.088 1.289-21.561-6.713-29.582zM532.044 296.486c-15.701 0-28.444 12.743-28.444 28.444v218.074h-9.481c-15.701 0-28.444 12.743-28.444 28.444s12.743 28.444 28.444 28.444h37.926c15.701 0 28.444-12.743 28.444-28.444v-246.519c0-15.72-12.743-28.444-28.444-28.444z" />
<glyph unicode="&#xe91c;" glyph-name="r-play" d="M774.4 230.4h-102.4c-12.8 0-25.6 6.4-38.4 12.8s-19.2 12.8-25.6 25.6l-76.8 128-32-44.8 64-108.8c12.8-19.2 25.6-32 44.8-44.8s38.4-19.2 57.6-19.2h102.4v-70.4l140.8 96-140.8 96v-70.4h6.4zM633.6 652.8c12.8 6.4 25.6 12.8 38.4 12.8h102.4v-70.4l140.8 96-140.8 96v-70.4h-102.4c-19.2 0-44.8-6.4-57.6-19.2-25.6-12.8-38.4-25.6-51.2-44.8l-217.6-384c-6.4-12.8-19.2-19.2-25.6-25.6-12.8-6.4-25.6-12.8-38.4-12.8h-134.4v-44.8h134.4c19.2 0 44.8 6.4 57.6 19.2 19.2 12.8 32 25.6 44.8 44.8l217.6 384c12.8 6.4 19.2 12.8 32 19.2zM320 652.8c6.4-6.4 19.2-12.8 25.6-25.6l76.8-134.4 25.6 51.2-64 108.8c-6.4 19.2-25.6 32-44.8 44.8-12.8 6.4-38.4 12.8-57.6 12.8h-134.4v-44.8h134.4c12.8 0 25.6-6.4 38.4-12.8z" />
<glyph unicode="&#xe91d;" glyph-name="x-play" d="M651.359 151.364h-76.383l153.322-85.514c6.847-3.819 9.192-12.277 5.239-18.889l-14.315-23.952c-3.953-6.615-12.707-8.88-19.554-5.062l-223.143 124.457c-3.606 2.012-5.921 5.321-6.767 8.96h-10.138l28.129 53.982h158.789c141.688 0 256.551 108.763 256.551 242.929 0 105.274-70.732 194.882-169.639 228.604l25.79 49.495c116.697-42.181 199.788-150.758 199.788-278.099 0-163.98-137.749-296.911-307.67-296.911zM376.482 691.204c-141.691 0-256.551-108.762-256.551-242.928 0-122.23 95.347-223.338 219.449-240.366l-26.602-51.051c-141.744 26.519-248.787 146.877-248.787 291.416 0 163.98 137.746 296.912 307.67 296.912h132.321l-153.321 85.513c-6.847 3.819-9.192 12.277-5.239 18.89l14.315 23.952c3.95 6.613 12.707 8.879 19.554 5.060l223.14-124.456c3.608-2.012 5.922-5.32 6.768-8.959h10.141l-28.13-53.983h-214.729z" />
<glyph unicode="&#xe91e;" glyph-name="delete" d="M909.051 790.523h-217.555v31.347c0 39.587-32.205 71.792-71.793 71.792h-211.547c-39.587 0-71.792-32.205-71.792-71.792v-31.347h-223.014c-11.014 0-19.942-8.941-19.942-19.954s8.928-19.954 19.942-19.954h84.264v-640.688c0-60.479 49.204-109.683 109.683-109.683h416.474c60.479 0 109.683 49.204 109.683 109.683v640.688h75.596c11.013 0 19.942 8.941 19.942 19.954s-8.928 19.954-19.941 19.954zM376.248 821.869c0 17.594 14.314 31.908 31.908 31.908h211.547c17.594 0 31.908-14.314 31.908-31.908v-31.347h-275.362v31.347zM793.57 109.925c0-38.487-31.312-69.799-69.799-69.799h-416.473c-38.487 0-69.799 31.312-69.799 69.799v639.032h556.071v-639.032zM510.663 98.723c11.013 0 19.954 8.929 19.954 19.942v546.422c0 11.014-8.942 19.942-19.954 19.942s-19.954-8.928-19.954-19.942v-546.422c0-11.013 8.942-19.942 19.954-19.942zM374.563 158.551c11.013 0 19.954 8.929 19.954 19.942v426.767c0 11.014-8.942 19.942-19.954 19.942s-19.954-8.928-19.954-19.942v-426.767c0-11.013 8.942-19.942 19.954-19.942zM649.832 158.551c11.013 0 19.954 8.929 19.954 19.942v426.767c0 11.014-8.942 19.942-19.954 19.942s-19.954-8.928-19.954-19.942v-426.767c0-11.013 8.942-19.942 19.954-19.942z" />
</font>
</defs>
</svg>
